<svg width="190" height="38" viewBox="0 0 190 38" fill="none" xmlns="http://www.w3.org/2000/svg">
<g clip-path="url(#clip0_2231_134)">
<path d="M187.471 20.4805C186.075 20.4805 184.941 21.618 184.941 23.0176C184.941 24.4172 186.075 25.5547 187.471 25.5547C188.866 25.5547 190 24.4152 190 23.0176C190 21.62 188.864 20.4805 187.471 20.4805ZM187.471 25.0107C186.375 25.0107 185.482 24.1154 185.482 23.0166C185.482 21.9178 186.375 21.0224 187.471 21.0224C188.566 21.0224 189.459 21.9178 189.459 23.0166C189.459 24.1154 188.566 25.0107 187.471 25.0107Z" fill="white"/>
<path d="M188.159 23.4046C188.434 23.2498 188.603 22.9748 188.603 22.687C188.603 22.2056 188.205 21.8423 187.676 21.8423H186.473V24.1918H187.012V23.5327H187.557L188.056 24.1918H188.728L188.141 23.4176L188.16 23.4046H188.159ZM187.676 23.0205H187.012V22.3485H187.676C187.9 22.3485 188.063 22.4905 188.063 22.688C188.063 22.8855 187.897 23.0205 187.676 23.0205Z" fill="white"/>
<path d="M60.0855 2.19873H59.4135L48.4688 25.4347H51.2228L54.8051 17.8462H64.6019L68.2179 25.4347H70.8897L60.1082 2.24836L60.0855 2.19873ZM55.9361 15.4471L59.7401 7.38808L63.5253 15.4471H55.9361Z" fill="white"/>
<path d="M88.0025 16.6621V8.20312H85.5949V16.2542C85.5949 18.3664 85.486 19.766 85.2703 20.4122C84.9546 21.3512 84.3727 22.1205 83.5415 22.6972C82.7092 23.2749 81.6801 23.5677 80.4827 23.5677C79.2853 23.5677 78.2403 23.2669 77.3774 22.6734C76.5164 22.0818 75.9247 21.2639 75.6189 20.2435C75.413 19.5238 75.3091 18.1808 75.3091 16.2532V8.20312H72.949V16.5053C72.949 18.9312 73.228 20.7765 73.7773 21.9895C74.3294 23.2074 75.1765 24.1692 76.2967 24.8492C77.415 25.5281 78.8261 25.8725 80.4916 25.8725C82.1571 25.8725 83.5623 25.5281 84.6706 24.8492C85.7799 24.1692 86.622 23.2143 87.1732 22.0133C87.7225 20.8162 88.0015 19.0156 88.0015 16.6621H88.0025Z" fill="white"/>
<path d="M105.903 8.20312H103.06L98.6277 14.3831L94.1489 8.20312H91.3108L97.2067 16.3643L90.7012 25.4348H93.5254L98.6277 18.3317L103.76 25.4348H106.638L100.053 16.3475L105.903 8.20312Z" fill="white"/>
<path d="M112.649 8.20312H110.289V25.4338H112.649V8.20312Z" fill="white"/>
<path d="M111.461 1.1792C110.952 1.1792 110.507 1.3668 110.139 1.73804C109.771 2.10828 109.584 2.5619 109.584 3.08501C109.584 3.60811 109.771 4.04585 110.139 4.41609C110.506 4.78634 110.951 4.97493 111.461 4.97493C111.97 4.97493 112.431 4.78733 112.798 4.41609C113.166 4.04585 113.352 3.59818 113.352 3.08501C113.352 2.57183 113.166 2.10927 112.798 1.73804C112.43 1.36779 111.98 1.1792 111.461 1.1792Z" fill="white"/>
<path d="M120.979 1.61816H118.618V25.4338H120.979V1.61816Z" fill="white"/>
<path d="M129.308 8.20312H126.948V25.4338H129.308V8.20312Z" fill="white"/>
<path d="M128.119 1.1792C127.611 1.1792 127.165 1.3668 126.797 1.73804C126.429 2.10828 126.243 2.5619 126.243 3.08501C126.243 3.60811 126.429 4.04585 126.797 4.41609C127.164 4.78634 127.61 4.97493 128.119 4.97493C128.629 4.97493 129.089 4.78733 129.456 4.41609C129.824 4.04585 130.011 3.59818 130.011 3.08501C130.011 2.57183 129.824 2.10927 129.456 1.73804C129.088 1.36779 128.639 1.1792 128.119 1.1792Z" fill="white"/>
<path d="M150.376 8.20312H147.968V16.2542C147.968 18.3674 147.86 19.767 147.644 20.4122C147.328 21.3512 146.746 22.1205 145.915 22.6972C145.083 23.2749 144.055 23.5677 142.857 23.5677C141.66 23.5677 140.614 23.2669 139.752 22.6734C138.891 22.0818 138.299 21.2639 137.993 20.2435C137.788 19.5238 137.684 18.1808 137.684 16.2532V8.20312H135.323V16.5053C135.323 18.9312 135.603 20.7765 136.152 21.9895C136.703 23.2074 137.551 24.1692 138.671 24.8492C139.789 25.5281 141.201 25.8725 142.866 25.8725C144.532 25.8725 145.937 25.5281 147.045 24.8492C148.154 24.1692 148.997 23.2143 149.548 22.0133C150.097 20.8152 150.376 19.0156 150.376 16.6621V8.20312Z" fill="white"/>
<path d="M177.316 8.6724C176.406 8.06988 175.343 7.76416 174.157 7.76416C172.888 7.76416 171.687 8.11951 170.586 8.82029C169.533 9.4903 168.638 10.47 167.921 11.7336C167.588 10.8115 167.194 10.0849 166.748 9.57368C166.272 9.02874 165.651 8.58604 164.902 8.25749C164.154 7.92993 163.353 7.76416 162.521 7.76416C161.291 7.76416 160.102 8.10562 158.986 8.78059C158.232 9.25109 157.488 9.98661 156.771 10.9683V8.20289H154.41V25.4336H156.771V18.119C156.771 16.0078 156.982 14.4206 157.397 13.4012C157.811 12.3867 158.458 11.5688 159.321 10.9703C160.183 10.3717 161.121 10.069 162.109 10.069C162.962 10.069 163.708 10.2884 164.326 10.7201C164.944 11.1519 165.382 11.7336 165.631 12.4493C165.882 13.1739 166.009 14.5754 166.009 16.6152V25.4346H168.369V18.6689C168.369 16.246 168.571 14.494 168.97 13.4637C169.367 12.4393 170.005 11.6085 170.864 10.9941C171.723 10.3807 172.684 10.069 173.72 10.069C174.571 10.069 175.313 10.2755 175.924 10.6814C176.535 11.0874 176.971 11.6304 177.224 12.2944C177.478 12.9664 177.607 14.2241 177.607 16.0346V25.4336H180.015V16.0346C180.015 13.9005 179.792 12.2756 179.354 11.2045C178.913 10.1266 178.228 9.27491 177.319 8.6724H177.316Z" fill="white"/>
<path d="M48.9309 36.3769H49.6197V32.4412H51.2861V31.8198H48.9309V36.3769Z" fill="white"/>
<path d="M55.4108 31.7061C55.0417 31.7061 54.7032 31.7865 54.4034 31.9453C54.15 32.0793 53.9195 32.2728 53.7146 32.521V31.8202H53.0259V38.0002H53.7146V35.7142C53.9304 35.9505 54.1698 36.1351 54.4291 36.2641C54.7319 36.415 55.0674 36.4904 55.4266 36.4904C56.0659 36.4904 56.6191 36.2542 57.0713 35.7887C57.5235 35.3241 57.7521 34.7504 57.7521 34.0854C57.7521 33.4203 57.5206 32.8674 57.0644 32.4039C56.6082 31.9403 56.051 31.7051 55.4098 31.7051L55.4108 31.7061ZM57.0565 34.1052C57.0565 34.405 56.9783 34.6968 56.8249 34.9727C56.6715 35.2477 56.4617 35.4641 56.2034 35.6169C55.6819 35.9247 55.0486 35.9187 54.5142 35.6179C54.245 35.4661 54.0362 35.2586 53.8918 35.0015C53.7473 34.7425 53.6741 34.4467 53.6741 34.1221C53.6741 33.6278 53.8383 33.2079 54.1619 32.8764C54.4855 32.5448 54.8893 32.3771 55.3623 32.3771C55.6661 32.3771 55.9511 32.4535 56.2084 32.6034C56.4657 32.7533 56.6735 32.9677 56.8259 33.2387C56.9783 33.5116 57.0555 33.8025 57.0555 34.1062L57.0565 34.1052Z" fill="white"/>
<path d="M61.4866 35.149L60.0062 31.8198H59.2739L61.1165 35.9818L60.2388 37.9998H60.9701L63.6607 31.8198H62.9255L61.4866 35.149Z" fill="white"/>
<path d="M65.3293 36.3769H66.0181V32.4779H68.4733V36.3769H69.161V31.8198H65.3293V36.3769Z" fill="white"/>
<path d="M75.24 32.52C75.0371 32.2718 74.8066 32.0793 74.5522 31.9453C74.2514 31.7865 73.91 31.7061 73.5389 31.7061C72.8967 31.7061 72.3385 31.9413 71.8823 32.4048C71.4261 32.8684 71.1946 33.4342 71.1946 34.0863C71.1946 34.7385 71.4242 35.3251 71.8764 35.7896C72.3296 36.2552 72.8828 36.4914 73.5231 36.4914C73.8823 36.4914 74.2187 36.415 74.5235 36.2651C74.7838 36.1361 75.0243 35.9514 75.241 35.7152V36.3783H75.9208V31.8212H75.241V32.521L75.24 32.52ZM74.7878 32.8753C75.1123 33.2069 75.2766 33.6267 75.2766 34.1211C75.2766 34.4457 75.2034 34.7414 75.0589 35.0005C74.9144 35.2586 74.7056 35.4661 74.4374 35.6169C73.9041 35.9187 73.2638 35.9227 72.7443 35.6159C72.485 35.4631 72.2762 35.2467 72.1218 34.9717C71.9684 34.6968 71.8903 34.405 71.8903 34.1042C71.8903 33.8034 71.9674 33.5086 72.1198 33.2376C72.2722 32.9667 72.4801 32.7523 72.7373 32.6024C72.9956 32.4525 73.2806 32.3761 73.5844 32.3761C74.0584 32.3761 74.4632 32.5438 74.7868 32.8753H74.7878Z" fill="white"/>
<path d="M85.1793 31.8198H84.2085L82.2412 33.6135V31.8198H81.5525V36.3769H82.2412V34.4512L82.358 34.348L84.3708 36.3769H85.3456L82.8667 33.9122L85.1793 31.8198Z" fill="white"/>
<path d="M88.9694 31.7061C88.2708 31.7061 87.6839 31.9641 87.2267 32.4723C86.8111 32.9329 86.6003 33.4848 86.6003 34.1111C86.6003 34.7375 86.823 35.3043 87.2624 35.7767C87.7017 36.2512 88.2767 36.4914 88.9694 36.4914C89.6621 36.4914 90.2331 36.2512 90.6725 35.7767C91.1119 35.3033 91.3345 34.7434 91.3345 34.1111C91.3345 33.4789 91.1237 32.9289 90.7081 32.4684C90.2499 31.9631 89.6651 31.707 88.9694 31.707V31.7061ZM88.9674 32.384C89.4187 32.384 89.8145 32.5547 90.143 32.8922C90.4716 33.2297 90.6378 33.6436 90.6378 34.1231C90.6378 34.4318 90.5616 34.7246 90.4132 34.9916C90.2638 35.2586 90.0599 35.467 89.8066 35.611C89.5533 35.7559 89.2702 35.8293 88.9674 35.8293C88.6646 35.8293 88.3806 35.7559 88.1273 35.611C87.8739 35.467 87.6701 35.2586 87.5207 34.9916C87.3712 34.7246 87.296 34.4318 87.296 34.1231C87.296 33.6436 87.4623 33.2297 87.7888 32.8922C88.1164 32.5547 88.5122 32.384 88.9664 32.384H88.9674Z" fill="white"/>
<path d="M98.1795 31.8198L96.4408 35.2205L94.711 31.8526L94.6942 31.8198H94.4606L92.908 36.3769H93.6274L94.6892 33.1995L96.3478 36.3769H96.5249L98.1785 33.2035L99.2453 36.3769H99.9647L98.4209 31.8198H98.1795Z" fill="white"/>
<path d="M101.753 36.3769H102.442V32.4779H104.897V36.3769H105.586V31.8198H101.753V36.3769Z" fill="white"/>
<path d="M111.665 32.52C111.462 32.2718 111.231 32.0793 110.977 31.9453C110.676 31.7865 110.335 31.7061 109.963 31.7061C109.321 31.7061 108.763 31.9413 108.307 32.4048C107.851 32.8684 107.619 33.4342 107.619 34.0863C107.619 34.7385 107.849 35.3251 108.301 35.7896C108.754 36.2552 109.307 36.4914 109.948 36.4914C110.307 36.4914 110.643 36.415 110.948 36.2651C111.208 36.1361 111.449 35.9514 111.666 35.7152V36.3783H112.345V31.8212H111.666V32.521L111.665 32.52ZM111.212 32.8753C111.537 33.2069 111.701 33.6267 111.701 34.1211C111.701 34.4457 111.628 34.7414 111.483 35.0005C111.339 35.2586 111.13 35.4661 110.862 35.6169C110.327 35.9187 109.687 35.9217 109.169 35.6159C108.91 35.4631 108.701 35.2467 108.546 34.9717C108.393 34.6968 108.315 34.405 108.315 34.1042C108.315 33.8034 108.392 33.5086 108.544 33.2376C108.697 32.9667 108.905 32.7523 109.162 32.6024C109.42 32.4525 109.705 32.3761 110.009 32.3761C110.483 32.3761 110.888 32.5438 111.211 32.8753H111.212Z" fill="white"/>
<path d="M117.733 33.5817H115.277V31.8198H114.589V36.3769H115.277V34.2398H117.733V36.3769H118.42V31.8198H117.733V33.5817Z" fill="white"/>
<path d="M121.256 31.8198H120.567V36.3769H121.256V31.8198Z" fill="white"/>
<path d="M120.909 29.9927C120.767 29.9927 120.642 30.0453 120.539 30.1485C120.436 30.2518 120.385 30.3788 120.385 30.5247C120.385 30.6706 120.437 30.7937 120.54 30.897C120.643 31.0002 120.768 31.0528 120.91 31.0528C121.053 31.0528 121.181 31.0002 121.284 30.897C121.387 30.7927 121.44 30.6677 121.44 30.5247C121.44 30.3818 121.387 30.2518 121.284 30.1475C121.181 30.0443 121.056 29.9917 120.91 29.9917L120.909 29.9927Z" fill="white"/>
<path d="M124.091 35.018V31.8198H123.403V36.3769H123.556L126.696 33.2095V36.3769H127.385V31.8198H127.256L124.091 35.018Z" fill="white"/>
<path d="M124.398 30.7657C124.658 30.9324 124.997 31.0178 125.406 31.0178C125.815 31.0178 126.155 30.9314 126.408 30.7607C126.666 30.588 126.828 30.3696 126.89 30.1115L126.908 30.0381H126.283L126.265 30.0619C126.152 30.2118 126.031 30.317 125.909 30.3746C125.784 30.4331 125.617 30.4629 125.409 30.4629C125.201 30.4629 125.027 30.4292 124.88 30.3627C124.737 30.2972 124.621 30.1969 124.535 30.0659L124.517 30.0391H123.87L123.891 30.1145C123.962 30.3786 124.132 30.5979 124.396 30.7677L124.398 30.7657Z" fill="white"/>
<path d="M135.971 31.8198H135.236L134.314 34.1048L135.244 36.3769H135.972L135.036 34.1137L135.971 31.8198Z" fill="white"/>
<path d="M134.108 31.8198H133.384L132.452 34.1048L133.383 36.3769H134.109L133.175 34.1088L134.108 31.8198Z" fill="white"/>
<path d="M140.039 30.2578L137.197 36.2919L137.156 36.3772H137.955L138.887 34.4029H141.389L142.33 36.3772H143.107L140.262 30.2578H140.04H140.039ZM141.074 33.7041H139.217L140.148 31.7318L141.074 33.7041Z" fill="white"/>
<path d="M148.495 31.8198H147.524L145.557 33.6135V31.8198H144.869V36.3769H145.557V34.4512L145.673 34.348L147.686 36.3769H148.661L146.182 33.9122L148.495 31.8198Z" fill="white"/>
<path d="M153.987 35.0898C153.589 35.5921 153.069 35.8462 152.441 35.8462C152.098 35.8462 151.785 35.7688 151.509 35.6169C151.234 35.465 151.015 35.2496 150.858 34.9747C150.7 34.7007 150.62 34.403 150.62 34.0923C150.62 33.6138 150.794 33.2019 151.137 32.8684C151.479 32.5339 151.918 32.3641 152.437 32.3641C153.089 32.3641 153.61 32.6182 153.986 33.1195L154.019 33.1632L154.566 32.8217L154.536 32.7721C154.4 32.5438 154.231 32.3522 154.038 32.2043C153.843 32.0564 153.604 31.9353 153.327 31.845C153.05 31.7537 152.759 31.707 152.46 31.707C151.986 31.707 151.551 31.8142 151.167 32.0247C150.782 32.2351 150.476 32.5329 150.255 32.9091C150.036 33.2853 149.924 33.6982 149.924 34.1369C149.924 34.7891 150.162 35.3519 150.633 35.8075C151.103 36.2621 151.703 36.4934 152.416 36.4934C152.878 36.4934 153.296 36.4021 153.66 36.2234C154.024 36.0427 154.319 35.7857 154.534 35.4601L154.567 35.4104L154.021 35.0501L153.987 35.0928V35.0898Z" fill="white"/>
<path d="M156.859 29.9927C156.716 29.9927 156.592 30.0453 156.489 30.1485C156.386 30.2518 156.334 30.3788 156.334 30.5247C156.334 30.6706 156.387 30.7937 156.49 30.897C156.593 31.0002 156.717 31.0528 156.86 31.0528C157.002 31.0528 157.131 31.0002 157.234 30.897C157.337 30.7927 157.389 30.6677 157.389 30.5247C157.389 30.3818 157.337 30.2518 157.234 30.1475C157.131 30.0443 157.005 29.9917 156.86 29.9917L156.859 29.9927Z" fill="white"/>
<path d="M157.205 31.8198H156.516V36.3769H157.205V31.8198Z" fill="white"/>
<path d="M161.161 31.8198H160.983L158.898 36.3769H159.64L161.071 33.2283L162.498 36.3421L162.513 36.3769H163.251L161.176 31.8546L161.161 31.8198Z" fill="white"/>
<path d="M165.652 31.8198H164.964V36.3769H165.652V31.8198Z" fill="white"/>
<path d="M165.307 29.9927C165.164 29.9927 165.04 30.0453 164.937 30.1485C164.834 30.2518 164.782 30.3788 164.782 30.5247C164.782 30.6706 164.835 30.7937 164.938 30.897C165.041 31.0002 165.165 31.0528 165.308 31.0528C165.45 31.0528 165.579 31.0002 165.682 30.897C165.785 30.7927 165.837 30.6677 165.837 30.5247C165.837 30.3818 165.785 30.2518 165.682 30.1475C165.579 30.0443 165.453 29.9917 165.308 29.9917L165.307 29.9927Z" fill="white"/>
<path d="M169.505 35.149L168.023 31.8198H167.292L169.135 35.9818L168.257 37.9998H168.988L171.679 31.8198H170.943L169.505 35.149Z" fill="white"/>
<path d="M178.175 31.8198L176.437 35.2205L174.707 31.8526L174.69 31.8198H174.456L172.904 36.3769H173.623L174.685 33.1995L176.344 36.3769H176.521L178.174 33.2035L179.24 36.3769H179.961L178.417 31.8198H178.175Z" fill="white"/>
<path d="M183.033 31.8198L183.965 34.0929L183.033 36.3769H183.76L184.691 34.0919L183.76 31.8198H183.033Z" fill="white"/>
<path d="M181.171 31.8198L182.105 34.0879L181.171 36.3769H181.901L182.82 34.1147L182.828 34.0919L181.897 31.8198H181.171Z" fill="white"/>
<path d="M15.8482 0L0 15.8966V11.5549L11.5197 0H15.8482Z" fill="#FF830A"/>
<path d="M34.773 18.4965L16.2341 37.092H11.5197L0 25.54V21.1984L4.51349 25.7227L23.2453 6.93359L25.4323 9.12726L6.69849 27.9163L13.8542 35.0939L32.588 16.3058L34.773 18.4965Z" fill="#FF830A"/>
<path d="M37.0134 11.5202V15.8619L32.5376 11.3723L13.8057 30.1584L11.6188 27.9647L30.3506 9.17566L23.1949 2.0001L4.46505 20.7892L2.27808 18.5955L20.8169 0H25.5313L37.0134 11.5202Z" fill="#FF830A"/>
<path d="M21.2029 37.0918L37.0135 21.2329V25.5746L25.5313 37.0918H21.2029Z" fill="#FF830A"/>
</g>
<defs>
<clipPath id="clip0_2231_134">
<rect width="190" height="38" fill="white"/>
</clipPath>
</defs>
</svg>
