<?xml version="1.0" standalone="no"?>
<!DOCTYPE svg PUBLIC "-//W3C//DTD SVG 1.1//EN" "http://www.w3.org/Graphics/SVG/1.1/DTD/svg11.dtd">
<svg xmlns="http://www.w3.org/2000/svg" xmlns:xlink="http://www.w3.org/1999/xlink" version="1.1" id="Layer_1" x="0px" y="0px" viewBox="0 0 1280 800" style="enable-background:new 0 0 1280 800;" xml:space="preserve" width="1280" height="800">
<style type="text/css">
	.st0{fill:#486375;}
	.st1{fill:#00AADA;}
</style>
<g>
	<polygon class="st0" points="423.6,441.5 423.6,415.1 457.6,415.1 465.3,401.7 423.6,401.7 423.6,376.3 461.7,376.3 469.5,362.7    407.5,362.7 407.5,455.1 462.6,455.1 470.3,441.5  "/>
	<polygon class="st0" points="562.2,362.7 534.5,440 506.9,362.7 489.5,362.7 525.4,455.1 543.5,455.1 579.5,362.7  "/>
	<polygon class="st0" points="617.5,441.5 617.5,415.1 651.5,415.1 659.2,401.7 617.5,401.7 617.5,376.3 655.6,376.3 663.4,362.7    601.4,362.7 601.4,455.1 656.5,455.1 664.2,441.5  "/>
	<path class="st0" d="M752.9,455.1h18l-28.1-35.5l3.2-1c13-4.1,19.6-13.1,19.6-26.6c0-25.5-22.7-29.2-36.2-29.2h-37.6v92.3H708   v-33.9h18.7L752.9,455.1z M708,376.3h22.4c11.7,0,18.7,6,18.7,16.1c0,9.9-7.2,16.1-18.7,16.1H708V376.3z"/>
	<polygon class="st0" points="810.7,441 810.7,362.7 794.6,362.7 794.6,455.1 848.8,455.1 856.6,441  "/>
	<polygon class="st0" points="896.1,441.5 896.1,415.1 930.1,415.1 937.8,401.7 896.1,401.7 896.1,376.3 934.2,376.3 942,362.7    880,362.7 880,455.1 935.1,455.1 942.8,441.5  "/>
	<path class="st0" d="M1015,457c9.7,0,20.1-2,29.3-5.7v-42.7l-15.1,7.9V441l-1.5,0.6c-3.3,1.3-7.3,2-11.5,2   c-8.4,0-35.6-2.5-35.6-34.7c0-25.3,19.8-34.2,36.7-34.2c8.8,0,17.6,2.1,24.7,5.7v-14.2c-8.5-3.5-18-5.4-27.5-5.4   c-23.3,0-50.5,12.6-50.5,48.1C964,444.4,990.4,457,1015,457z"/>
	<polygon class="st0" points="1194.1,441 1194.1,362.7 1178,362.7 1178,455.1 1232.2,455.1 1240,441  "/>
	<path class="st0" d="M1118.9,362.7h-19.3l-37.7,92.3h16.4l7.2-18.2h47.5l7.1,18.2h16.4L1118.9,362.7z M1090.2,424.4l14.7-38   c0.4-0.9,0.7-1.8,1.1-2.9l3.2-8.4l3.8,9.8c0.2,0.5,0.4,1.1,0.6,1.6l14.8,38H1090.2z"/>
	<polygon class="st1" points="304.7,506 251.2,506 184.4,440.7 204.1,420.6 262.6,477.8 276.6,477.8 276.6,340 262.7,340 93.5,506    40,506 40,311.8 93.5,311.8 160.2,377.2 140.5,397.3 82,340 68.1,340 68.1,477.8 82,477.8 251.2,311.8 304.7,311.8  "/>
</g>
</svg>